<svg version="1.0" xmlns="http://www.w3.org/2000/svg" width="199pt" height="80pt" viewBox="0 0 199.000000 80.000000"  preserveAspectRatio="xMidYMid meet">
 
<rect width="260" height="80" x="10" y="15" rx="10" ry="10" fill="white"/>

<g transform="translate(0.000000,58.000000) scale(0.100000,-0.100000)" fill="#000000" stroke="none">
<path d="M1020 535 c-11 -13 -9 -19 9 -34 26 -23 26 -25 -3 -64 -24 -33 -186 -312 -186 -322 0 -3 15 -5 34 -5 31 0 38 5 63 50 l28 50 113 0 112 0 28 -50 c25 -46 30 -50 65 -50 l39 0 -20 33 c-11 17 -50 85 -87 150 -43 75 -72 116 -80 113 -16 -6 -50 30 
-37 38 6 3 12 0 15 -6 3 -10 9 -8 23 4 18 17 17 20 -29  63 -51 48 -67 54 -87 30z m104 -215 c25 -43 46 -82 46 -85 0 -3 -43 -5 -96 -5 -53 0 -94 3 -92 8 9 21 90 162 93 162 2 0 24 -36 49 -80z"/>
<path d="M154 256 c-3 -7 -4 -40 -2 -72 2 -44 7 -59 18 -59 11 0 15 12 14 48  0 26 2 47 6 47 3 0 28 -22 55 -50 27 -28 55 -50 62 -50 9 0 13 20 13 75 0 60 -3 75 -15 75 -11 0 -15 -12 -15 -50 0 -27 -2 -50 -5 -50 -2 0 -25 23 -51 50 -47 51 -70 61 -80 36z"/>
<path d="M422 254 c-33 -23 -32 -97 3 -120 28 -18 104 -21 135 -4 44 24 48 96 7 125 -28 20 -116 19 -145 -1z m119 -14 c22 -12 27 -68 7 -88 -7 -7 -31 -12 -55 -12 -45 0 -63 17 -63 59 0 43 62 66 111 41z"/>
<path d="M650 265 c0 -3 16 -37 35 -76 46 -90 66 -91 112 -4 35 66 39 85 20 85 -7 0 -26 -27 -42 -60 -15 -32 -32 -57 -37 -54 -5 3 -20 30 -33 60 -14 32 -30 54 -39 54 -9 0 -16 -2 -16 -5z"/>
<path d="M1330 245 c0 -10 10 -15 35 -15 l34 0 3 -62 c4 -80 22 -78 26 1 3 59 3 60 35 63 64 6 31 23 -50 26 -69 2 -83 0 -83 -13z"/>
<path d="M1579 248 c-2 -60 0 -141 5 -146 4 -3 11 -1 17 5 14 14 7 145 -8 151 -7 2 -13 -2 -14 -10z"/>
<path d="M1708 249 c-21 -12 -24 -54 -5 -66 6 -4 30 -10 52 -13 27 -3 41 -11 43 -22 3 -15 -5 -18 -52 -18 -58 0 -75 -15 -30 -26 31 -8 91 1 110 17 30 25 2 69 -45 69 -31 0 -70 24 -58 37 5 4 29 7 53 6 32 -1 44 2 44 13 0 17 -85 19 -112 3z"/>
</g>

<!-- ALT YAZI -->
<text
  x="50%"
  y="65"
  text-anchor="middle"
  font-family="Cursive"
  font-size="10"
  fill="black">
  Real Estate &amp; IT Consultancy
</text>
</svg>